<svg width="233" height="16" viewBox="0 0 233 16" fill="none" xmlns="http://www.w3.org/2000/svg">
<g clip-path="url(#clip0_240_542)">
<path d="M233 3.00954V0.0270996H201.881V15.9818H233V13.0084H205.398V9.49112H233V6.51775H205.398V3.00954H233Z" fill="white"/>
<path d="M194.229 6.49065H172.891V0H169.383V15.9547H172.891V9.99887H194.229V15.9547H197.737V9.99887V6.49065V0H194.229V6.49065Z" fill="white"/>
<path d="M136.352 3.55348V12.4645C136.352 14.4226 137.911 16.009 139.869 16.009L165.295 15.9818V12.4736H140.349C140.132 12.4736 139.887 12.2832 139.887 12.0385V4.02487C139.887 3.75291 140.177 3.52628 140.458 3.52628H165.295V0.0180664H139.914C137.956 0.0180664 136.352 1.58634 136.352 3.54441V3.55348Z" fill="white"/>
<path d="M128.628 6.50869H106.229C105.903 6.50869 105.64 6.28206 105.64 5.95571V3.56251C105.64 3.23616 105.903 2.99141 106.229 2.99141H131.647V0.0270996H105.586C103.646 0.0270996 102.123 1.6407 102.123 3.57158V5.96478C102.123 7.92285 103.709 9.50925 105.667 9.50925H128.066C128.393 9.50925 128.656 9.72682 128.656 10.0532V12.4554C128.656 12.7818 128.393 13.0084 128.066 13.0084H102.603V15.9908H128.628C130.586 15.9908 132.173 14.4135 132.173 12.4645V10.0622C132.173 8.10415 130.577 6.51775 128.628 6.51775V6.50869Z" fill="white"/>
<path d="M94.6168 10.5427C96.5204 10.4793 98.0161 8.92005 98.0161 6.99824V3.53535C98.0161 1.58634 96.4388 0.0271316 94.4899 0.0180664H67.9121V15.9727H71.4202V11.7756H90.9819C92.9399 11.7756 94.5262 13.362 94.5262 15.32V15.9455H98.0524V15.9002C98.0524 13.5251 96.6473 11.4674 94.6168 10.5336V10.5427ZM94.5081 7.67812C94.5081 7.97727 94.2724 8.25829 93.9732 8.26736H71.4292V3.52628H93.9098C94.2361 3.52628 94.5081 3.81637 94.5081 4.14271V7.67812Z" fill="white"/>
<path d="M60.2076 0.0180664H37.7089C35.7509 0.0180664 34.1465 1.58634 34.1465 3.54441V12.4555C34.1465 14.4135 35.7509 15.9727 37.7089 15.9727H60.1623C62.1203 15.9727 63.6885 14.4045 63.6885 12.4464V3.53535C63.6885 1.60447 62.1293 0.0180664 60.2167 0.0180664H60.2076ZM60.1895 11.8844C60.1895 12.1926 59.9175 12.4645 59.6275 12.4645H38.1531C37.9265 12.4645 37.6908 12.2651 37.6908 12.0294V4.02487C37.6908 3.75291 37.9809 3.52628 38.2619 3.52628H59.5731C59.8994 3.52628 60.1895 3.8073 60.1895 4.13365V11.8753V11.8844Z" fill="white"/>
<path d="M26.4872 0.0180664H0V15.9727H3.50805V11.7756H26.4872C28.4451 11.7756 30.0224 10.2073 30.0224 8.24923V3.53535C30.0224 1.57727 28.4451 0.0180664 26.4872 0.0180664ZM26.5144 7.67812C26.5144 7.97727 26.2877 8.25829 25.9795 8.26736H3.50805V3.52628H25.9161C26.2424 3.52628 26.5144 3.81637 26.5144 4.14271V7.67812Z" fill="white"/>
</g>
<defs>
<clipPath id="clip0_240_542">
<rect width="233" height="16" fill="white"/>
</clipPath>
</defs>
</svg>
